<svg width="30" height="30" viewBox="0 0 30 30" fill="none" xmlns="http://www.w3.org/2000/svg">
<path d="M10.0347 24.1327C10.0347 24.2638 9.90352 24.3575 9.71608 24.3575C9.52865 24.3575 9.3787 24.3575 9.3787 24.1327C9.3787 23.9078 9.52865 23.9078 9.69734 23.9078C9.86603 23.9078 10.0347 24.0015 10.0347 24.1327ZM8.16037 23.8516C8.16037 23.9828 8.16037 24.1327 8.42278 24.1701C8.4899 24.2024 8.56706 24.2067 8.63733 24.1821C8.70762 24.1576 8.76526 24.1061 8.79765 24.039C8.79765 23.9078 8.79765 23.7767 8.53524 23.7205C8.27283 23.6643 8.19785 23.7205 8.16037 23.8516ZM10.822 23.758C10.6533 23.758 10.5408 23.9078 10.5595 24.0577C10.5783 24.2076 10.7282 24.2638 10.9157 24.2264C11.1031 24.1889 11.1968 24.0577 11.1781 23.9266C11.1593 23.7954 11.0094 23.7392 10.822 23.758ZM14.8143 0.00117786C12.8376 -0.0174267 10.8774 0.363357 9.05151 1.12067C7.22561 1.87799 5.57158 2.99622 4.18868 4.40827C2.8058 5.82032 1.72255 7.49709 1.00396 9.33793C0.285373 11.1788 -0.0537734 13.1457 0.00691826 15.1208C-0.0454138 18.3563 0.914538 21.5273 2.75266 24.1909C4.59079 26.8546 7.2153 28.8779 10.2596 29.9782C11.0281 30.1093 11.3092 29.6222 11.3092 29.2288C11.3092 28.8353 11.3092 26.7182 11.3092 25.4816C11.3092 25.4816 7.07324 26.4184 6.17355 23.6081C6.17355 23.6081 5.49878 21.7345 4.50537 21.3411C4.50537 21.3411 3.11835 20.3668 4.59909 20.3855C5.08406 20.4509 5.54695 20.6291 5.95059 20.9056C6.35424 21.1822 6.68739 21.5496 6.92329 21.9781C7.11941 22.3623 7.39201 22.7026 7.72437 22.9776C8.05672 23.2528 8.44182 23.4573 8.85603 23.5783C9.27027 23.6993 9.70485 23.7345 10.1332 23.6817C10.5615 23.6289 10.9745 23.4889 11.3467 23.2708C11.4178 22.4886 11.7551 21.7546 12.3026 21.1912C8.92885 20.7977 5.51753 20.3106 5.51753 14.3339C5.48169 13.6587 5.59021 12.9836 5.83583 12.3537C6.08146 11.7239 6.45856 11.1534 6.94204 10.6805C6.48589 9.309 6.53912 7.81919 7.09198 6.48372C8.36655 6.07153 11.2717 8.15119 11.2717 8.15119C13.7538 7.45147 16.3811 7.45147 18.8629 8.15119C18.8629 8.15119 21.7681 6.07153 23.0427 6.48372C23.6076 7.81657 23.6609 9.31078 23.1926 10.6805C23.6933 11.1469 24.0903 11.713 24.3583 12.3423C24.6262 12.9717 24.759 13.6501 24.7484 14.3339C24.7484 20.3293 21.1871 20.7977 17.8132 21.1912C18.1523 21.5713 18.4104 22.0167 18.5716 22.4999C18.7326 22.983 18.7935 23.494 18.7504 24.0015C18.7504 26.0999 18.7504 28.6854 18.7504 29.1913C18.7493 29.3178 18.7785 29.4427 18.8359 29.5555C18.8934 29.6683 18.977 29.7657 19.0801 29.8392C19.183 29.9128 19.3024 29.9604 19.4276 29.978C19.553 29.9958 19.6809 29.9829 19.8001 29.9407C22.839 28.8499 25.458 26.8325 27.2876 24.1733C29.1173 21.5142 30.0648 18.3475 29.9966 15.1208C30.0142 13.1257 29.6331 11.147 28.8757 9.30098C28.1183 7.45494 26.9997 5.77864 25.5856 4.37039C24.1716 2.96214 22.4903 1.85028 20.6407 1.10001C18.7911 0.349736 16.8103 -0.0238342 14.8143 0.00117786ZM5.8924 21.3785C5.8924 21.3785 5.8924 21.5846 5.8924 21.697C5.91329 21.718 5.93811 21.7347 5.96546 21.7459C5.99281 21.7574 6.0221 21.7632 6.05172 21.7632C6.08131 21.7632 6.11063 21.7574 6.13797 21.7459C6.1653 21.7347 6.19014 21.718 6.21104 21.697C6.21104 21.697 6.21104 21.4909 6.21104 21.3598C6.21104 21.2286 5.96737 21.3036 5.8924 21.3785ZM5.23637 20.8727C5.23637 20.8727 5.23637 21.06 5.36758 21.1162C5.38338 21.1359 5.40338 21.1516 5.42607 21.1625C5.44877 21.1732 5.47363 21.179 5.49878 21.179C5.52393 21.179 5.54877 21.1732 5.57147 21.1625C5.59419 21.1516 5.61417 21.1359 5.62999 21.1162C5.62999 21.1162 5.62999 20.9289 5.49878 20.8727C5.36758 20.8165 5.27386 20.8165 5.23637 20.8727ZM7.11073 23.0835C7.11073 23.0835 7.11073 23.3458 7.11073 23.4769C7.11073 23.6081 7.42937 23.6268 7.50434 23.4769C7.57932 23.327 7.50434 23.2146 7.50434 23.0835C7.50434 22.9523 7.26068 22.9898 7.1857 23.0835H7.11073ZM6.41722 22.1654C6.41722 22.1654 6.41722 22.3903 6.41722 22.5401C6.41722 22.69 6.67963 22.7462 6.77334 22.69C6.8208 22.6355 6.84695 22.5656 6.84695 22.4933C6.84695 22.421 6.8208 22.3511 6.77334 22.2966C6.67963 22.1467 6.52968 22.0905 6.41722 22.1654Z" fill="white"/>
</svg>
