<svg width="26" height="16" viewBox="0 0 26 16" fill="none" xmlns="http://www.w3.org/2000/svg">
<path d="M24.4788 0.00311279H0.505005V15.9969H25.495V0.00311279H24.4788ZM23.4784 1.00249L13.8241 10.6569C13.3834 11.0975 12.6156 11.0975 12.175 10.6569L2.51876 1.00249H23.4784ZM1.50438 1.40093L7.99469 7.8903L1.50438 14.3806V1.39999V1.40093ZM2.30219 14.9975L8.70251 8.59811L11.4691 11.3637C11.8778 11.7725 12.4216 11.9984 13 11.9984C13.5784 11.9984 14.1222 11.7725 14.5309 11.3637L17.2975 8.59718L23.6969 14.9966H2.30125L2.30219 14.9975ZM24.4956 14.3815L18.0053 7.8903L24.4956 1.39905V14.3815Z" fill="white"/>
</svg>
