<svg width="655" height="37" viewBox="0 0 655 37" fill="none" xmlns="http://www.w3.org/2000/svg">
<path d="M18.8818 6.67188V28H16.04L5.30273 11.5498V28H2.47559V6.67188H5.30273L16.084 23.166V6.67188H18.8818ZM22.7637 20.251V19.9141C22.7637 18.7715 22.9297 17.7119 23.2617 16.7354C23.5938 15.749 24.0723 14.8945 24.6973 14.1719C25.3223 13.4395 26.0791 12.873 26.9678 12.4727C27.8564 12.0625 28.8525 11.8574 29.9561 11.8574C31.0693 11.8574 32.0703 12.0625 32.959 12.4727C33.8574 12.873 34.6191 13.4395 35.2441 14.1719C35.8789 14.8945 36.3623 15.749 36.6943 16.7354C37.0264 17.7119 37.1924 18.7715 37.1924 19.9141V20.251C37.1924 21.3936 37.0264 22.4531 36.6943 23.4297C36.3623 24.4062 35.8789 25.2607 35.2441 25.9932C34.6191 26.7158 33.8623 27.2822 32.9736 27.6924C32.0947 28.0928 31.0986 28.293 29.9854 28.293C28.8721 28.293 27.8711 28.0928 26.9824 27.6924C26.0938 27.2822 25.332 26.7158 24.6973 25.9932C24.0723 25.2607 23.5938 24.4062 23.2617 23.4297C22.9297 22.4531 22.7637 21.3936 22.7637 20.251ZM25.4736 19.9141V20.251C25.4736 21.042 25.5664 21.7891 25.752 22.4922C25.9375 23.1855 26.2158 23.8008 26.5869 24.3379C26.9678 24.875 27.4414 25.2998 28.0078 25.6123C28.5742 25.915 29.2334 26.0664 29.9854 26.0664C30.7275 26.0664 31.377 25.915 31.9336 25.6123C32.5 25.2998 32.9688 24.875 33.3398 24.3379C33.7109 23.8008 33.9893 23.1855 34.1748 22.4922C34.3701 21.7891 34.4678 21.042 34.4678 20.251V19.9141C34.4678 19.1328 34.3701 18.3955 34.1748 17.7021C33.9893 16.999 33.7061 16.3789 33.3252 15.8418C32.9541 15.2949 32.4854 14.8652 31.9189 14.5527C31.3623 14.2402 30.708 14.084 29.9561 14.084C29.2139 14.084 28.5596 14.2402 27.9932 14.5527C27.4365 14.8652 26.9678 15.2949 26.5869 15.8418C26.2158 16.3789 25.9375 16.999 25.752 17.7021C25.5664 18.3955 25.4736 19.1328 25.4736 19.9141ZM50.5811 24.9238V5.5H53.3057V28H50.8154L50.5811 24.9238ZM39.917 20.251V19.9434C39.917 18.7324 40.0635 17.6338 40.3564 16.6475C40.6592 15.6514 41.084 14.7969 41.6309 14.084C42.1875 13.3711 42.8467 12.8242 43.6084 12.4434C44.3799 12.0527 45.2393 11.8574 46.1865 11.8574C47.1826 11.8574 48.0518 12.0332 48.7939 12.3848C49.5459 12.7266 50.1807 13.2295 50.6982 13.8936C51.2256 14.5479 51.6406 15.3389 51.9434 16.2666C52.2461 17.1943 52.4561 18.2441 52.5732 19.416V20.7637C52.4658 21.9258 52.2559 22.9707 51.9434 23.8984C51.6406 24.8262 51.2256 25.6172 50.6982 26.2715C50.1807 26.9258 49.5459 27.4287 48.7939 27.7803C48.042 28.1221 47.1631 28.293 46.1572 28.293C45.2295 28.293 44.3799 28.0928 43.6084 27.6924C42.8467 27.292 42.1875 26.7305 41.6309 26.0078C41.084 25.2852 40.6592 24.4355 40.3564 23.459C40.0635 22.4727 39.917 21.4033 39.917 20.251ZM42.6416 19.9434V20.251C42.6416 21.042 42.7197 21.7842 42.876 22.4775C43.042 23.1709 43.2959 23.7812 43.6377 24.3086C43.9795 24.8359 44.4141 25.251 44.9414 25.5537C45.4688 25.8467 46.0986 25.9932 46.8311 25.9932C47.7295 25.9932 48.4668 25.8027 49.043 25.4219C49.6289 25.041 50.0977 24.5381 50.4492 23.9131C50.8008 23.2881 51.0742 22.6094 51.2695 21.877V18.3467C51.1523 17.8096 50.9814 17.292 50.7568 16.7939C50.542 16.2861 50.2588 15.8369 49.9072 15.4463C49.5654 15.0459 49.1406 14.7285 48.6328 14.4941C48.1348 14.2598 47.5439 14.1426 46.8604 14.1426C46.1182 14.1426 45.4785 14.2988 44.9414 14.6113C44.4141 14.9141 43.9795 15.334 43.6377 15.8711C43.2959 16.3984 43.042 17.0137 42.876 17.7168C42.7197 18.4102 42.6416 19.1523 42.6416 19.9434ZM64.1016 28.293C62.998 28.293 61.9971 28.1074 61.0986 27.7363C60.21 27.3555 59.4434 26.8232 58.7988 26.1396C58.1641 25.4561 57.6758 24.6455 57.334 23.708C56.9922 22.7705 56.8213 21.7451 56.8213 20.6318V20.0166C56.8213 18.7275 57.0117 17.5801 57.3926 16.5742C57.7734 15.5586 58.291 14.6992 58.9453 13.9961C59.5996 13.293 60.3418 12.7607 61.1719 12.3994C62.002 12.0381 62.8613 11.8574 63.75 11.8574C64.8828 11.8574 65.8594 12.0527 66.6797 12.4434C67.5098 12.834 68.1885 13.3809 68.7158 14.084C69.2432 14.7773 69.6338 15.5977 69.8877 16.5449C70.1416 17.4824 70.2686 18.5078 70.2686 19.6211V20.8369H58.4326V18.625H67.5586V18.4199C67.5195 17.7168 67.373 17.0332 67.1191 16.3691C66.875 15.7051 66.4844 15.1582 65.9473 14.7285C65.4102 14.2988 64.6777 14.084 63.75 14.084C63.1348 14.084 62.5684 14.2158 62.0508 14.4795C61.5332 14.7334 61.0889 15.1143 60.7178 15.6221C60.3467 16.1299 60.0586 16.75 59.8535 17.4824C59.6484 18.2148 59.5459 19.0596 59.5459 20.0166V20.6318C59.5459 21.3838 59.6484 22.0918 59.8535 22.7559C60.0684 23.4102 60.376 23.9863 60.7764 24.4844C61.1865 24.9824 61.6797 25.373 62.2559 25.6562C62.8418 25.9395 63.5059 26.0811 64.248 26.0811C65.2051 26.0811 66.0156 25.8857 66.6797 25.4951C67.3438 25.1045 67.9248 24.582 68.4229 23.9277L70.0635 25.2314C69.7217 25.749 69.2871 26.2422 68.7598 26.7109C68.2324 27.1797 67.583 27.5605 66.8115 27.8535C66.0498 28.1465 65.1465 28.293 64.1016 28.293ZM82.793 21.7744V6.67188H85.6055V21.7744C85.6055 23.1807 85.3174 24.3672 84.7412 25.334C84.165 26.3008 83.3691 27.0381 82.3535 27.5459C81.3477 28.0439 80.1904 28.293 78.8818 28.293C77.5732 28.293 76.4111 28.0684 75.3955 27.6191C74.3799 27.1699 73.584 26.4863 73.0078 25.5684C72.4316 24.6504 72.1436 23.4932 72.1436 22.0967H74.9707C74.9707 22.9951 75.1367 23.7324 75.4688 24.3086C75.8008 24.8848 76.2598 25.3096 76.8457 25.583C77.4414 25.8564 78.1201 25.9932 78.8818 25.9932C79.624 25.9932 80.2881 25.8369 80.874 25.5244C81.4697 25.2021 81.9385 24.7285 82.2803 24.1035C82.6221 23.4688 82.793 22.6924 82.793 21.7744ZM99.2139 23.7959C99.2139 23.4053 99.126 23.0439 98.9502 22.7119C98.7842 22.3701 98.4375 22.0625 97.9102 21.7891C97.3926 21.5059 96.6113 21.2617 95.5664 21.0566C94.6875 20.8711 93.8916 20.6514 93.1787 20.3975C92.4756 20.1436 91.875 19.8359 91.377 19.4746C90.8887 19.1133 90.5127 18.6885 90.249 18.2002C89.9854 17.7119 89.8535 17.1406 89.8535 16.4863C89.8535 15.8613 89.9902 15.2705 90.2637 14.7139C90.5469 14.1572 90.9424 13.6641 91.4502 13.2344C91.9678 12.8047 92.5879 12.4678 93.3105 12.2236C94.0332 11.9795 94.8389 11.8574 95.7275 11.8574C96.9971 11.8574 98.0811 12.082 98.9795 12.5312C99.8779 12.9805 100.566 13.5811 101.045 14.333C101.523 15.0752 101.763 15.9004 101.763 16.8086H99.0527C99.0527 16.3691 98.9209 15.9443 98.6572 15.5342C98.4033 15.1143 98.0273 14.7676 97.5293 14.4941C97.041 14.2207 96.4404 14.084 95.7275 14.084C94.9756 14.084 94.3652 14.2012 93.8965 14.4355C93.4375 14.6602 93.1006 14.9482 92.8857 15.2998C92.6807 15.6514 92.5781 16.0225 92.5781 16.4131C92.5781 16.7061 92.627 16.9697 92.7246 17.2041C92.832 17.4287 93.0176 17.6387 93.2812 17.834C93.5449 18.0195 93.916 18.1953 94.3945 18.3613C94.873 18.5273 95.4834 18.6934 96.2256 18.8594C97.5244 19.1523 98.5938 19.5039 99.4336 19.9141C100.273 20.3242 100.898 20.8271 101.309 21.4229C101.719 22.0186 101.924 22.7412 101.924 23.5908C101.924 24.2842 101.777 24.9189 101.484 25.4951C101.201 26.0713 100.786 26.5693 100.239 26.9893C99.7021 27.3994 99.0576 27.7217 98.3057 27.9561C97.5635 28.1807 96.7285 28.293 95.8008 28.293C94.4043 28.293 93.2227 28.0439 92.2559 27.5459C91.2891 27.0479 90.5566 26.4033 90.0586 25.6123C89.5605 24.8213 89.3115 23.9863 89.3115 23.1074H92.0361C92.0752 23.8496 92.29 24.4404 92.6807 24.8799C93.0713 25.3096 93.5498 25.6172 94.1162 25.8027C94.6826 25.9785 95.2441 26.0664 95.8008 26.0664C96.543 26.0664 97.1631 25.9688 97.6611 25.7734C98.1689 25.5781 98.5547 25.3096 98.8184 24.9678C99.082 24.626 99.2139 24.2354 99.2139 23.7959Z" fill="white"/>
<path d="M183.025 26.7002V29H171.731V26.7002H183.025ZM172.303 7.67188V29H169.476V7.67188H172.303ZM181.531 16.8418V19.1416H171.731V16.8418H181.531ZM182.879 7.67188V9.98633H171.731V7.67188H182.879ZM187.947 13.1504L191.419 18.9219L194.935 13.1504H198.113L192.928 20.9727L198.274 29H195.14L191.478 23.0527L187.815 29H184.666L189.998 20.9727L184.827 13.1504H187.947ZM203.709 16.1973V35.0938H200.984V13.1504H203.475L203.709 16.1973ZM214.388 20.9434V21.251C214.388 22.4033 214.251 23.4727 213.978 24.459C213.704 25.4355 213.304 26.2852 212.776 27.0078C212.259 27.7305 211.619 28.292 210.857 28.6924C210.096 29.0928 209.222 29.293 208.235 29.293C207.229 29.293 206.341 29.127 205.569 28.7949C204.798 28.4629 204.144 27.9795 203.606 27.3447C203.069 26.71 202.64 25.9482 202.317 25.0596C202.005 24.1709 201.79 23.1699 201.673 22.0566V20.416C201.79 19.2441 202.01 18.1943 202.332 17.2666C202.654 16.3389 203.079 15.5479 203.606 14.8936C204.144 14.2295 204.793 13.7266 205.555 13.3848C206.316 13.0332 207.195 12.8574 208.191 12.8574C209.188 12.8574 210.071 13.0527 210.843 13.4434C211.614 13.8242 212.264 14.3711 212.791 15.084C213.318 15.7969 213.714 16.6514 213.978 17.6475C214.251 18.6338 214.388 19.7324 214.388 20.9434ZM211.663 21.251V20.9434C211.663 20.1523 211.58 19.4102 211.414 18.7168C211.248 18.0137 210.989 17.3984 210.638 16.8711C210.296 16.334 209.856 15.9141 209.319 15.6113C208.782 15.2988 208.143 15.1426 207.4 15.1426C206.717 15.1426 206.121 15.2598 205.613 15.4941C205.115 15.7285 204.69 16.0459 204.339 16.4463C203.987 16.8369 203.699 17.2861 203.475 17.7939C203.26 18.292 203.099 18.8096 202.991 19.3467V23.1406C203.187 23.8242 203.46 24.4688 203.812 25.0742C204.163 25.6699 204.632 26.1533 205.218 26.5244C205.804 26.8857 206.541 27.0664 207.43 27.0664C208.162 27.0664 208.792 26.915 209.319 26.6123C209.856 26.2998 210.296 25.875 210.638 25.3379C210.989 24.8008 211.248 24.1855 211.414 23.4922C211.58 22.7891 211.663 22.042 211.663 21.251ZM220.555 15.6406V29H217.845V13.1504H220.481L220.555 15.6406ZM225.506 13.0625L225.491 15.582C225.267 15.5332 225.052 15.5039 224.847 15.4941C224.651 15.4746 224.427 15.4648 224.173 15.4648C223.548 15.4648 222.996 15.5625 222.518 15.7578C222.039 15.9531 221.634 16.2266 221.302 16.5781C220.97 16.9297 220.706 17.3496 220.511 17.8379C220.325 18.3164 220.203 18.8438 220.145 19.4199L219.383 19.8594C219.383 18.9023 219.476 18.0039 219.661 17.1641C219.856 16.3242 220.154 15.582 220.555 14.9375C220.955 14.2832 221.463 13.7754 222.078 13.4141C222.703 13.043 223.445 12.8574 224.305 12.8574C224.5 12.8574 224.725 12.8818 224.979 12.9307C225.232 12.9697 225.408 13.0137 225.506 13.0625ZM234.295 29.293C233.191 29.293 232.19 29.1074 231.292 28.7363C230.403 28.3555 229.637 27.8232 228.992 27.1396C228.357 26.4561 227.869 25.6455 227.527 24.708C227.186 23.7705 227.015 22.7451 227.015 21.6318V21.0166C227.015 19.7275 227.205 18.5801 227.586 17.5742C227.967 16.5586 228.484 15.6992 229.139 14.9961C229.793 14.293 230.535 13.7607 231.365 13.3994C232.195 13.0381 233.055 12.8574 233.943 12.8574C235.076 12.8574 236.053 13.0527 236.873 13.4434C237.703 13.834 238.382 14.3809 238.909 15.084C239.437 15.7773 239.827 16.5977 240.081 17.5449C240.335 18.4824 240.462 19.5078 240.462 20.6211V21.8369H228.626V19.625H237.752V19.4199C237.713 18.7168 237.566 18.0332 237.312 17.3691C237.068 16.7051 236.678 16.1582 236.141 15.7285C235.604 15.2988 234.871 15.084 233.943 15.084C233.328 15.084 232.762 15.2158 232.244 15.4795C231.727 15.7334 231.282 16.1143 230.911 16.6221C230.54 17.1299 230.252 17.75 230.047 18.4824C229.842 19.2148 229.739 20.0596 229.739 21.0166V21.6318C229.739 22.3838 229.842 23.0918 230.047 23.7559C230.262 24.4102 230.569 24.9863 230.97 25.4844C231.38 25.9824 231.873 26.373 232.449 26.6562C233.035 26.9395 233.699 27.0811 234.441 27.0811C235.398 27.0811 236.209 26.8857 236.873 26.4951C237.537 26.1045 238.118 25.582 238.616 24.9277L240.257 26.2314C239.915 26.749 239.48 27.2422 238.953 27.7109C238.426 28.1797 237.776 28.5605 237.005 28.8535C236.243 29.1465 235.34 29.293 234.295 29.293ZM252.854 24.7959C252.854 24.4053 252.767 24.0439 252.591 23.7119C252.425 23.3701 252.078 23.0625 251.551 22.7891C251.033 22.5059 250.252 22.2617 249.207 22.0566C248.328 21.8711 247.532 21.6514 246.819 21.3975C246.116 21.1436 245.516 20.8359 245.018 20.4746C244.529 20.1133 244.153 19.6885 243.89 19.2002C243.626 18.7119 243.494 18.1406 243.494 17.4863C243.494 16.8613 243.631 16.2705 243.904 15.7139C244.188 15.1572 244.583 14.6641 245.091 14.2344C245.608 13.8047 246.229 13.4678 246.951 13.2236C247.674 12.9795 248.479 12.8574 249.368 12.8574C250.638 12.8574 251.722 13.082 252.62 13.5312C253.519 13.9805 254.207 14.5811 254.686 15.333C255.164 16.0752 255.403 16.9004 255.403 17.8086H252.693C252.693 17.3691 252.562 16.9443 252.298 16.5342C252.044 16.1143 251.668 15.7676 251.17 15.4941C250.682 15.2207 250.081 15.084 249.368 15.084C248.616 15.084 248.006 15.2012 247.537 15.4355C247.078 15.6602 246.741 15.9482 246.526 16.2998C246.321 16.6514 246.219 17.0225 246.219 17.4131C246.219 17.7061 246.268 17.9697 246.365 18.2041C246.473 18.4287 246.658 18.6387 246.922 18.834C247.186 19.0195 247.557 19.1953 248.035 19.3613C248.514 19.5273 249.124 19.6934 249.866 19.8594C251.165 20.1523 252.234 20.5039 253.074 20.9141C253.914 21.3242 254.539 21.8271 254.949 22.4229C255.359 23.0186 255.564 23.7412 255.564 24.5908C255.564 25.2842 255.418 25.9189 255.125 26.4951C254.842 27.0713 254.427 27.5693 253.88 27.9893C253.343 28.3994 252.698 28.7217 251.946 28.9561C251.204 29.1807 250.369 29.293 249.441 29.293C248.045 29.293 246.863 29.0439 245.896 28.5459C244.93 28.0479 244.197 27.4033 243.699 26.6123C243.201 25.8213 242.952 24.9863 242.952 24.1074H245.677C245.716 24.8496 245.931 25.4404 246.321 25.8799C246.712 26.3096 247.19 26.6172 247.757 26.8027C248.323 26.9785 248.885 27.0664 249.441 27.0664C250.184 27.0664 250.804 26.9688 251.302 26.7734C251.81 26.5781 252.195 26.3096 252.459 25.9678C252.723 25.626 252.854 25.2354 252.854 24.7959ZM268.353 24.7959C268.353 24.4053 268.265 24.0439 268.089 23.7119C267.923 23.3701 267.576 23.0625 267.049 22.7891C266.531 22.5059 265.75 22.2617 264.705 22.0566C263.826 21.8711 263.03 21.6514 262.317 21.3975C261.614 21.1436 261.014 20.8359 260.516 20.4746C260.027 20.1133 259.651 19.6885 259.388 19.2002C259.124 18.7119 258.992 18.1406 258.992 17.4863C258.992 16.8613 259.129 16.2705 259.402 15.7139C259.686 15.1572 260.081 14.6641 260.589 14.2344C261.106 13.8047 261.727 13.4678 262.449 13.2236C263.172 12.9795 263.978 12.8574 264.866 12.8574C266.136 12.8574 267.22 13.082 268.118 13.5312C269.017 13.9805 269.705 14.5811 270.184 15.333C270.662 16.0752 270.901 16.9004 270.901 17.8086H268.191C268.191 17.3691 268.06 16.9443 267.796 16.5342C267.542 16.1143 267.166 15.7676 266.668 15.4941C266.18 15.2207 265.579 15.084 264.866 15.084C264.114 15.084 263.504 15.2012 263.035 15.4355C262.576 15.6602 262.239 15.9482 262.024 16.2998C261.819 16.6514 261.717 17.0225 261.717 17.4131C261.717 17.7061 261.766 17.9697 261.863 18.2041C261.971 18.4287 262.156 18.6387 262.42 18.834C262.684 19.0195 263.055 19.1953 263.533 19.3613C264.012 19.5273 264.622 19.6934 265.364 19.8594C266.663 20.1523 267.732 20.5039 268.572 20.9141C269.412 21.3242 270.037 21.8271 270.447 22.4229C270.857 23.0186 271.062 23.7412 271.062 24.5908C271.062 25.2842 270.916 25.9189 270.623 26.4951C270.34 27.0713 269.925 27.5693 269.378 27.9893C268.841 28.3994 268.196 28.7217 267.444 28.9561C266.702 29.1807 265.867 29.293 264.939 29.293C263.543 29.293 262.361 29.0439 261.395 28.5459C260.428 28.0479 259.695 27.4033 259.197 26.6123C258.699 25.8213 258.45 24.9863 258.45 24.1074H261.175C261.214 24.8496 261.429 25.4404 261.819 25.8799C262.21 26.3096 262.688 26.6172 263.255 26.8027C263.821 26.9785 264.383 27.0664 264.939 27.0664C265.682 27.0664 266.302 26.9688 266.8 26.7734C267.308 26.5781 267.693 26.3096 267.957 25.9678C268.221 25.626 268.353 25.2354 268.353 24.7959Z" fill="white"/>
<path d="M339.369 8.67188H342.108L349.096 26.0596L356.068 8.67188H358.822L350.15 30H348.012L339.369 8.67188ZM338.476 8.67188H340.893L341.288 21.6797V30H338.476V8.67188ZM357.284 8.67188H359.701V30H356.889V21.6797L357.284 8.67188ZM363.539 22.251V21.9141C363.539 20.7715 363.705 19.7119 364.037 18.7354C364.369 17.749 364.848 16.8945 365.473 16.1719C366.098 15.4395 366.854 14.873 367.743 14.4727C368.632 14.0625 369.628 13.8574 370.731 13.8574C371.845 13.8574 372.846 14.0625 373.734 14.4727C374.633 14.873 375.395 15.4395 376.02 16.1719C376.654 16.8945 377.138 17.749 377.47 18.7354C377.802 19.7119 377.968 20.7715 377.968 21.9141V22.251C377.968 23.3936 377.802 24.4531 377.47 25.4297C377.138 26.4062 376.654 27.2607 376.02 27.9932C375.395 28.7158 374.638 29.2822 373.749 29.6924C372.87 30.0928 371.874 30.293 370.761 30.293C369.647 30.293 368.646 30.0928 367.758 29.6924C366.869 29.2822 366.107 28.7158 365.473 27.9932C364.848 27.2607 364.369 26.4062 364.037 25.4297C363.705 24.4531 363.539 23.3936 363.539 22.251ZM366.249 21.9141V22.251C366.249 23.042 366.342 23.7891 366.527 24.4922C366.713 25.1855 366.991 25.8008 367.362 26.3379C367.743 26.875 368.217 27.2998 368.783 27.6123C369.35 27.915 370.009 28.0664 370.761 28.0664C371.503 28.0664 372.152 27.915 372.709 27.6123C373.275 27.2998 373.744 26.875 374.115 26.3379C374.486 25.8008 374.765 25.1855 374.95 24.4922C375.146 23.7891 375.243 23.042 375.243 22.251V21.9141C375.243 21.1328 375.146 20.3955 374.95 19.7021C374.765 18.999 374.481 18.3789 374.101 17.8418C373.729 17.2949 373.261 16.8652 372.694 16.5527C372.138 16.2402 371.483 16.084 370.731 16.084C369.989 16.084 369.335 16.2402 368.769 16.5527C368.212 16.8652 367.743 17.2949 367.362 17.8418C366.991 18.3789 366.713 18.999 366.527 19.7021C366.342 20.3955 366.249 21.1328 366.249 21.9141ZM384.076 17.5342V30H381.366V14.1504H383.93L384.076 17.5342ZM383.432 21.4746L382.304 21.4307C382.313 20.3467 382.475 19.3457 382.787 18.4277C383.1 17.5 383.539 16.6943 384.105 16.0107C384.672 15.3271 385.346 14.7998 386.127 14.4287C386.918 14.0479 387.792 13.8574 388.749 13.8574C389.53 13.8574 390.233 13.9648 390.858 14.1797C391.483 14.3848 392.016 14.7168 392.455 15.1758C392.904 15.6348 393.246 16.2305 393.48 16.9629C393.715 17.6855 393.832 18.5693 393.832 19.6143V30H391.107V19.585C391.107 18.7549 390.985 18.0908 390.741 17.5928C390.497 17.085 390.141 16.7188 389.672 16.4941C389.203 16.2598 388.627 16.1426 387.943 16.1426C387.27 16.1426 386.654 16.2842 386.098 16.5674C385.551 16.8506 385.077 17.2412 384.677 17.7393C384.286 18.2373 383.979 18.8086 383.754 19.4531C383.539 20.0879 383.432 20.7617 383.432 21.4746ZM408.217 14.1504H410.678V29.6631C410.678 31.0596 410.395 32.251 409.828 33.2373C409.262 34.2236 408.471 34.9707 407.455 35.4785C406.449 35.9961 405.287 36.2549 403.969 36.2549C403.422 36.2549 402.777 36.167 402.035 35.9912C401.303 35.8252 400.58 35.5371 399.867 35.127C399.164 34.7266 398.573 34.1846 398.095 33.501L399.516 31.8896C400.18 32.6904 400.873 33.2471 401.596 33.5596C402.328 33.8721 403.051 34.0283 403.764 34.0283C404.623 34.0283 405.365 33.8672 405.99 33.5449C406.615 33.2227 407.099 32.7441 407.44 32.1094C407.792 31.4844 407.968 30.7129 407.968 29.7949V17.6367L408.217 14.1504ZM397.304 22.251V21.9434C397.304 20.7324 397.445 19.6338 397.729 18.6475C398.021 17.6514 398.437 16.7969 398.974 16.084C399.521 15.3711 400.18 14.8242 400.951 14.4434C401.723 14.0527 402.592 13.8574 403.559 13.8574C404.555 13.8574 405.424 14.0332 406.166 14.3848C406.918 14.7266 407.553 15.2295 408.07 15.8936C408.598 16.5479 409.013 17.3389 409.315 18.2666C409.618 19.1943 409.828 20.2441 409.945 21.416V22.7637C409.838 23.9258 409.628 24.9707 409.315 25.8984C409.013 26.8262 408.598 27.6172 408.07 28.2715C407.553 28.9258 406.918 29.4287 406.166 29.7803C405.414 30.1221 404.535 30.293 403.529 30.293C402.582 30.293 401.723 30.0928 400.951 29.6924C400.189 29.292 399.535 28.7305 398.988 28.0078C398.441 27.2852 398.021 26.4355 397.729 25.459C397.445 24.4727 397.304 23.4033 397.304 22.251ZM400.014 21.9434V22.251C400.014 23.042 400.092 23.7842 400.248 24.4775C400.414 25.1709 400.663 25.7812 400.995 26.3086C401.337 26.8359 401.771 27.251 402.299 27.5537C402.826 27.8467 403.456 27.9932 404.188 27.9932C405.087 27.9932 405.829 27.8027 406.415 27.4219C407.001 27.041 407.465 26.5381 407.807 25.9131C408.158 25.2881 408.432 24.6094 408.627 23.877V20.3467C408.52 19.8096 408.354 19.292 408.129 18.7939C407.914 18.2861 407.631 17.8369 407.279 17.4463C406.938 17.0459 406.513 16.7285 406.005 16.4941C405.497 16.2598 404.901 16.1426 404.218 16.1426C403.476 16.1426 402.836 16.2988 402.299 16.6113C401.771 16.9141 401.337 17.334 400.995 17.8711C400.663 18.3984 400.414 19.0137 400.248 19.7168C400.092 20.4102 400.014 21.1523 400.014 21.9434ZM414.076 22.251V21.9141C414.076 20.7715 414.242 19.7119 414.574 18.7354C414.906 17.749 415.385 16.8945 416.01 16.1719C416.635 15.4395 417.392 14.873 418.28 14.4727C419.169 14.0625 420.165 13.8574 421.269 13.8574C422.382 13.8574 423.383 14.0625 424.271 14.4727C425.17 14.873 425.932 15.4395 426.557 16.1719C427.191 16.8945 427.675 17.749 428.007 18.7354C428.339 19.7119 428.505 20.7715 428.505 21.9141V22.251C428.505 23.3936 428.339 24.4531 428.007 25.4297C427.675 26.4062 427.191 27.2607 426.557 27.9932C425.932 28.7158 425.175 29.2822 424.286 29.6924C423.407 30.0928 422.411 30.293 421.298 30.293C420.185 30.293 419.184 30.0928 418.295 29.6924C417.406 29.2822 416.645 28.7158 416.01 27.9932C415.385 27.2607 414.906 26.4062 414.574 25.4297C414.242 24.4531 414.076 23.3936 414.076 22.251ZM416.786 21.9141V22.251C416.786 23.042 416.879 23.7891 417.064 24.4922C417.25 25.1855 417.528 25.8008 417.899 26.3379C418.28 26.875 418.754 27.2998 419.32 27.6123C419.887 27.915 420.546 28.0664 421.298 28.0664C422.04 28.0664 422.689 27.915 423.246 27.6123C423.812 27.2998 424.281 26.875 424.652 26.3379C425.023 25.8008 425.302 25.1855 425.487 24.4922C425.683 23.7891 425.78 23.042 425.78 22.251V21.9141C425.78 21.1328 425.683 20.3955 425.487 19.7021C425.302 18.999 425.019 18.3789 424.638 17.8418C424.267 17.2949 423.798 16.8652 423.231 16.5527C422.675 16.2402 422.021 16.084 421.269 16.084C420.526 16.084 419.872 16.2402 419.306 16.5527C418.749 16.8652 418.28 17.2949 417.899 17.8418C417.528 18.3789 417.25 18.999 417.064 19.7021C416.879 20.3955 416.786 21.1328 416.786 21.9141ZM438.085 30H433.632L433.661 27.7002H438.085C439.608 27.7002 440.878 27.3828 441.894 26.748C442.909 26.1035 443.671 25.2051 444.179 24.0527C444.696 22.8906 444.955 21.5332 444.955 19.9805V18.6768C444.955 17.4561 444.809 16.3721 444.516 15.4248C444.223 14.4678 443.793 13.6621 443.227 13.0078C442.66 12.3438 441.967 11.8408 441.146 11.499C440.336 11.1572 439.403 10.9863 438.349 10.9863H433.544V8.67188H438.349C439.745 8.67188 441.02 8.90625 442.172 9.375C443.324 9.83398 444.315 10.5029 445.146 11.3818C445.985 12.251 446.63 13.3057 447.079 14.5459C447.528 15.7764 447.753 17.1631 447.753 18.7061V19.9805C447.753 21.5234 447.528 22.915 447.079 24.1553C446.63 25.3857 445.98 26.4355 445.131 27.3047C444.291 28.1738 443.275 28.8428 442.084 29.3115C440.902 29.7705 439.569 30 438.085 30ZM435.141 8.67188V30H432.313V8.67188H435.141ZM451.576 7.5H454.301V26.9238L454.066 30H451.576V7.5ZM465.009 21.9434V22.251C465.009 23.4033 464.872 24.4727 464.599 25.459C464.325 26.4355 463.925 27.2852 463.397 28.0078C462.87 28.7305 462.226 29.292 461.464 29.6924C460.702 30.0928 459.828 30.293 458.842 30.293C457.836 30.293 456.952 30.1221 456.19 29.7803C455.438 29.4287 454.804 28.9258 454.286 28.2715C453.769 27.6172 453.354 26.8262 453.041 25.8984C452.738 24.9707 452.528 23.9258 452.411 22.7637V21.416C452.528 20.2441 452.738 19.1943 453.041 18.2666C453.354 17.3389 453.769 16.5479 454.286 15.8936C454.804 15.2295 455.438 14.7266 456.19 14.3848C456.942 14.0332 457.816 13.8574 458.812 13.8574C459.809 13.8574 460.692 14.0527 461.464 14.4434C462.235 14.8242 462.88 15.3711 463.397 16.084C463.925 16.7969 464.325 17.6514 464.599 18.6475C464.872 19.6338 465.009 20.7324 465.009 21.9434ZM462.284 22.251V21.9434C462.284 21.1523 462.211 20.4102 462.064 19.7168C461.918 19.0137 461.684 18.3984 461.361 17.8711C461.039 17.334 460.614 16.9141 460.087 16.6113C459.56 16.2988 458.91 16.1426 458.139 16.1426C457.455 16.1426 456.859 16.2598 456.352 16.4941C455.854 16.7285 455.429 17.0459 455.077 17.4463C454.726 17.8369 454.438 18.2861 454.213 18.7939C453.998 19.292 453.837 19.8096 453.729 20.3467V23.877C453.886 24.5605 454.14 25.2197 454.491 25.8545C454.853 26.4795 455.331 26.9922 455.927 27.3926C456.532 27.793 457.279 27.9932 458.168 27.9932C458.9 27.9932 459.525 27.8467 460.043 27.5537C460.57 27.251 460.995 26.8359 461.317 26.3086C461.649 25.7812 461.894 25.1709 462.05 24.4775C462.206 23.7842 462.284 23.042 462.284 22.251Z" fill="white"/>
<path d="M544.843 22.6094C544.843 22.1113 544.765 21.6719 544.608 21.291C544.462 20.9004 544.198 20.5488 543.817 20.2363C543.446 19.9238 542.929 19.626 542.265 19.3428C541.61 19.0596 540.78 18.7715 539.774 18.4785C538.72 18.166 537.768 17.8193 536.918 17.4385C536.068 17.0479 535.341 16.6035 534.735 16.1055C534.13 15.6074 533.666 15.0361 533.344 14.3916C533.021 13.7471 532.86 13.0098 532.86 12.1797C532.86 11.3496 533.031 10.583 533.373 9.87988C533.715 9.17676 534.203 8.56641 534.838 8.04883C535.482 7.52148 536.249 7.11133 537.138 6.81836C538.026 6.52539 539.018 6.37891 540.111 6.37891C541.713 6.37891 543.07 6.68652 544.184 7.30176C545.307 7.90723 546.161 8.70313 546.747 9.68945C547.333 10.666 547.626 11.7109 547.626 12.8242H544.813C544.813 12.0234 544.643 11.3154 544.301 10.7002C543.959 10.0752 543.441 9.58691 542.748 9.23535C542.055 8.87402 541.176 8.69336 540.111 8.69336C539.105 8.69336 538.275 8.84473 537.621 9.14746C536.967 9.4502 536.479 9.86035 536.156 10.3779C535.844 10.8955 535.688 11.4863 535.688 12.1504C535.688 12.5996 535.78 13.0098 535.966 13.3809C536.161 13.7422 536.459 14.0791 536.859 14.3916C537.27 14.7041 537.787 14.9922 538.412 15.2559C539.047 15.5195 539.804 15.7734 540.683 16.0176C541.894 16.3594 542.938 16.7402 543.817 17.1602C544.696 17.5801 545.419 18.0537 545.985 18.5811C546.562 19.0986 546.986 19.6895 547.26 20.3535C547.543 21.0078 547.685 21.75 547.685 22.5801C547.685 23.4492 547.509 24.2354 547.157 24.9385C546.806 25.6416 546.303 26.2422 545.648 26.7402C544.994 27.2383 544.208 27.624 543.29 27.8975C542.382 28.1611 541.366 28.293 540.243 28.293C539.257 28.293 538.285 28.1562 537.328 27.8828C536.381 27.6094 535.517 27.1992 534.735 26.6523C533.964 26.1055 533.344 25.4316 532.875 24.6309C532.416 23.8203 532.187 22.8828 532.187 21.8184H534.999C534.999 22.5508 535.141 23.1807 535.424 23.708C535.707 24.2256 536.093 24.6553 536.581 24.9971C537.079 25.3389 537.641 25.5928 538.266 25.7588C538.9 25.915 539.56 25.9932 540.243 25.9932C541.229 25.9932 542.064 25.8564 542.748 25.583C543.432 25.3096 543.949 24.9189 544.301 24.4111C544.662 23.9033 544.843 23.3027 544.843 22.6094ZM550.16 20.251V19.9141C550.16 18.7715 550.326 17.7119 550.658 16.7354C550.99 15.749 551.469 14.8945 552.094 14.1719C552.719 13.4395 553.476 12.873 554.364 12.4727C555.253 12.0625 556.249 11.8574 557.353 11.8574C558.466 11.8574 559.467 12.0625 560.355 12.4727C561.254 12.873 562.016 13.4395 562.641 14.1719C563.275 14.8945 563.759 15.749 564.091 16.7354C564.423 17.7119 564.589 18.7715 564.589 19.9141V20.251C564.589 21.3936 564.423 22.4531 564.091 23.4297C563.759 24.4062 563.275 25.2607 562.641 25.9932C562.016 26.7158 561.259 27.2822 560.37 27.6924C559.491 28.0928 558.495 28.293 557.382 28.293C556.269 28.293 555.268 28.0928 554.379 27.6924C553.49 27.2822 552.729 26.7158 552.094 25.9932C551.469 25.2607 550.99 24.4062 550.658 23.4297C550.326 22.4531 550.16 21.3936 550.16 20.251ZM552.87 19.9141V20.251C552.87 21.042 552.963 21.7891 553.148 22.4922C553.334 23.1855 553.612 23.8008 553.983 24.3379C554.364 24.875 554.838 25.2998 555.404 25.6123C555.971 25.915 556.63 26.0664 557.382 26.0664C558.124 26.0664 558.773 25.915 559.33 25.6123C559.896 25.2998 560.365 24.875 560.736 24.3379C561.107 23.8008 561.386 23.1855 561.571 22.4922C561.767 21.7891 561.864 21.042 561.864 20.251V19.9141C561.864 19.1328 561.767 18.3955 561.571 17.7021C561.386 16.999 561.103 16.3789 560.722 15.8418C560.351 15.2949 559.882 14.8652 559.315 14.5527C558.759 14.2402 558.104 14.084 557.353 14.084C556.61 14.084 555.956 14.2402 555.39 14.5527C554.833 14.8652 554.364 15.2949 553.983 15.8418C553.612 16.3789 553.334 16.999 553.148 17.7021C552.963 18.3955 552.87 19.1328 552.87 19.9141ZM574.33 26.0664C574.975 26.0664 575.57 25.9346 576.117 25.6709C576.664 25.4072 577.113 25.0459 577.465 24.5869C577.816 24.1182 578.017 23.5859 578.065 22.9902H580.644C580.595 23.9277 580.277 24.8018 579.691 25.6123C579.115 26.4131 578.358 27.0625 577.421 27.5605C576.483 28.0488 575.453 28.293 574.33 28.293C573.139 28.293 572.099 28.083 571.21 27.6631C570.331 27.2432 569.599 26.667 569.013 25.9346C568.437 25.2021 568.002 24.3623 567.709 23.415C567.426 22.458 567.284 21.4473 567.284 20.3828V19.7676C567.284 18.7031 567.426 17.6973 567.709 16.75C568.002 15.793 568.437 14.9482 569.013 14.2158C569.599 13.4834 570.331 12.9072 571.21 12.4873C572.099 12.0674 573.139 11.8574 574.33 11.8574C575.57 11.8574 576.654 12.1113 577.582 12.6191C578.51 13.1172 579.237 13.8008 579.765 14.6699C580.302 15.5293 580.595 16.5059 580.644 17.5996H578.065C578.017 16.9453 577.831 16.3545 577.509 15.8271C577.196 15.2998 576.767 14.8799 576.22 14.5674C575.683 14.2451 575.053 14.084 574.33 14.084C573.5 14.084 572.802 14.25 572.235 14.582C571.679 14.9043 571.234 15.3438 570.902 15.9004C570.58 16.4473 570.346 17.0576 570.199 17.7314C570.062 18.3955 569.994 19.0742 569.994 19.7676V20.3828C569.994 21.0762 570.062 21.7598 570.199 22.4336C570.336 23.1074 570.565 23.7178 570.888 24.2646C571.22 24.8115 571.664 25.251 572.221 25.583C572.787 25.9053 573.49 26.0664 574.33 26.0664ZM586.415 5.5V28H583.69V5.5H586.415ZM596.098 12.1504L589.184 19.5479L585.316 23.5615L585.097 20.6758L587.865 17.3652L592.787 12.1504H596.098ZM593.622 28L587.968 20.4414L589.374 18.0244L596.815 28H593.622ZM605.18 28.293C604.076 28.293 603.075 28.1074 602.177 27.7363C601.288 27.3555 600.521 26.8232 599.877 26.1396C599.242 25.4561 598.754 24.6455 598.412 23.708C598.07 22.7705 597.899 21.7451 597.899 20.6318V20.0166C597.899 18.7275 598.09 17.5801 598.471 16.5742C598.852 15.5586 599.369 14.6992 600.023 13.9961C600.678 13.293 601.42 12.7607 602.25 12.3994C603.08 12.0381 603.939 11.8574 604.828 11.8574C605.961 11.8574 606.938 12.0527 607.758 12.4434C608.588 12.834 609.267 13.3809 609.794 14.084C610.321 14.7773 610.712 15.5977 610.966 16.5449C611.22 17.4824 611.347 18.5078 611.347 19.6211V20.8369H599.511V18.625H608.637V18.4199C608.598 17.7168 608.451 17.0332 608.197 16.3691C607.953 15.7051 607.562 15.1582 607.025 14.7285C606.488 14.2988 605.756 14.084 604.828 14.084C604.213 14.084 603.646 14.2158 603.129 14.4795C602.611 14.7334 602.167 15.1143 601.796 15.6221C601.425 16.1299 601.137 16.75 600.932 17.4824C600.727 18.2148 600.624 19.0596 600.624 20.0166V20.6318C600.624 21.3838 600.727 22.0918 600.932 22.7559C601.146 23.4102 601.454 23.9863 601.854 24.4844C602.265 24.9824 602.758 25.373 603.334 25.6562C603.92 25.9395 604.584 26.0811 605.326 26.0811C606.283 26.0811 607.094 25.8857 607.758 25.4951C608.422 25.1045 609.003 24.582 609.501 23.9277L611.142 25.2314C610.8 25.749 610.365 26.2422 609.838 26.7109C609.311 27.1797 608.661 27.5605 607.89 27.8535C607.128 28.1465 606.225 28.293 605.18 28.293ZM621.146 12.1504V14.2305H612.577V12.1504H621.146ZM615.478 8.29785H618.188V24.0742C618.188 24.6113 618.271 25.0166 618.437 25.29C618.603 25.5635 618.817 25.7441 619.081 25.832C619.345 25.9199 619.628 25.9639 619.931 25.9639C620.155 25.9639 620.39 25.9443 620.634 25.9053C620.888 25.8564 621.078 25.8174 621.205 25.7881L621.22 28C621.005 28.0684 620.722 28.1318 620.37 28.1904C620.028 28.2588 619.613 28.293 619.125 28.293C618.461 28.293 617.851 28.1611 617.294 27.8975C616.737 27.6338 616.293 27.1943 615.961 26.5791C615.639 25.9541 615.478 25.1143 615.478 24.0596V8.29785ZM624.369 26.5645C624.369 26.1055 624.511 25.7197 624.794 25.4072C625.087 25.085 625.507 24.9238 626.054 24.9238C626.601 24.9238 627.016 25.085 627.299 25.4072C627.592 25.7197 627.738 26.1055 627.738 26.5645C627.738 27.0137 627.592 27.3945 627.299 27.707C627.016 28.0195 626.601 28.1758 626.054 28.1758C625.507 28.1758 625.087 28.0195 624.794 27.707C624.511 27.3945 624.369 27.0137 624.369 26.5645ZM635.18 12.1504V28H632.455V12.1504H635.18ZM632.25 7.94629C632.25 7.50684 632.382 7.13574 632.646 6.83301C632.919 6.53027 633.319 6.37891 633.847 6.37891C634.364 6.37891 634.76 6.53027 635.033 6.83301C635.316 7.13574 635.458 7.50684 635.458 7.94629C635.458 8.36621 635.316 8.72754 635.033 9.03027C634.76 9.32324 634.364 9.46973 633.847 9.46973C633.319 9.46973 632.919 9.32324 632.646 9.03027C632.382 8.72754 632.25 8.36621 632.25 7.94629ZM638.812 20.251V19.9141C638.812 18.7715 638.979 17.7119 639.311 16.7354C639.643 15.749 640.121 14.8945 640.746 14.1719C641.371 13.4395 642.128 12.873 643.017 12.4727C643.905 12.0625 644.901 11.8574 646.005 11.8574C647.118 11.8574 648.119 12.0625 649.008 12.4727C649.906 12.873 650.668 13.4395 651.293 14.1719C651.928 14.8945 652.411 15.749 652.743 16.7354C653.075 17.7119 653.241 18.7715 653.241 19.9141V20.251C653.241 21.3936 653.075 22.4531 652.743 23.4297C652.411 24.4062 651.928 25.2607 651.293 25.9932C650.668 26.7158 649.911 27.2822 649.022 27.6924C648.144 28.0928 647.147 28.293 646.034 28.293C644.921 28.293 643.92 28.0928 643.031 27.6924C642.143 27.2822 641.381 26.7158 640.746 25.9932C640.121 25.2607 639.643 24.4062 639.311 23.4297C638.979 22.4531 638.812 21.3936 638.812 20.251ZM641.522 19.9141V20.251C641.522 21.042 641.615 21.7891 641.801 22.4922C641.986 23.1855 642.265 23.8008 642.636 24.3379C643.017 24.875 643.49 25.2998 644.057 25.6123C644.623 25.915 645.282 26.0664 646.034 26.0664C646.776 26.0664 647.426 25.915 647.982 25.6123C648.549 25.2998 649.018 24.875 649.389 24.3379C649.76 23.8008 650.038 23.1855 650.224 22.4922C650.419 21.7891 650.517 21.042 650.517 20.251V19.9141C650.517 19.1328 650.419 18.3955 650.224 17.7021C650.038 16.999 649.755 16.3789 649.374 15.8418C649.003 15.2949 648.534 14.8652 647.968 14.5527C647.411 14.2402 646.757 14.084 646.005 14.084C645.263 14.084 644.608 14.2402 644.042 14.5527C643.485 14.8652 643.017 15.2949 642.636 15.8418C642.265 16.3789 641.986 16.999 641.801 17.7021C641.615 18.3955 641.522 19.1328 641.522 19.9141Z" fill="white"/>
<line x1="111" y1="19.5" x2="161" y2="19.5" stroke="white"/>
<path d="M280 20H330" stroke="white"/>
<path d="M475 20H525" stroke="white"/>
</svg>
